PathFileType	4	(X/Y/Z)	/Users/niels/Desktop/University/Third Semester/Perception and Action/Exam/Gymnastics Motion Tracking/Code for Gym Tracking/Scripts/Analyzed Data/Start Salto/st_salto_bad_id11_3_Sports2D/st_salto_bad_id11_3_Sports2D_px_person00.trc
DataRate	CameraRate	NumFrames	NumMarkers	Units	OrigDataRate	OrigDataStartFrame	OrigNumFrames
29.8051948051948	29.8051948051948	12	22	m	29.8051948051948	96	154
Frame#	Time	Hip			RHip			RKnee			RAnkle			RBigToe			RSmallToe			RHeel			LHip			LKnee			LAnkle			LBigToe			LSmallToe			LHeel			Neck			Head			Nose			RShoulder			RElbow			RWrist			LShoulder			LElbow			LWrist		
		X1	Y1	Z1	X2	Y2	Z2	X3	Y3	Z3	X4	Y4	Z4	X5	Y5	Z5	X6	Y6	Z6	X7	Y7	Z7	X8	Y8	Z8	X9	Y9	Z9	X10	Y10	Z10	X11	Y11	Z11	X12	Y12	Z12	X13	Y13	Z13	X14	Y14	Z14	X15	Y15	Z15	X16	Y16	Z16	X17	Y17	Z17	X18	Y18	Z18	X19	Y19	Z19	X20	Y20	Z20	X21	Y21	Z21	X22	Y22	Z22
96	3.2209150326797387	1.0645314340003966	-0.4636797554038084	0.0	1.0705668480441306	-0.46124430301814917	0.0	0.9401617130646863	-0.41568037609012565	0.0	1.0352274423204506	-0.32829312996480736	0.0	1.0114442288656735	-0.2707817010336073	0.0	1.0176498464706616	-0.2815536930630253	0.0	1.0429593923732454	-0.3208072226687204	0.0	1.0467107346471738	-0.4648959276690962	0.0	0.9368791321851991	-0.41553512602961723	0.0	0.9839089903671079	-0.32823430019392646	0.0	0.9549997545046894	-0.2755858840432844	0.0	0.9578802368540796	-0.283690794436117	0.0	0.9931225928350769	-0.32406042763661497	0.0	0.9413134500728558	-0.5504798002429461	0.0	0.8737290687943285	-0.5371590360237172	0.0	0.9160250129381757	-0.5131357162944578	0.0	0.9628853360028456	-0.5521756131907979	0.0	1.0048470606414461	-0.48294377694606333	0.0	0.9289913669875234	-0.4774263368491804	0.0	0.9483877728579126	-0.5423591032772439	0.0	0.9604211808535883	-0.4711962269557215	0.0	0.9156533274442915	-0.48388174716435167	0.0
97	3.2544662309368193	1.0706298057263455	-0.4720793327033622	0.0	1.0769617389916608	-0.4709392116502085	0.0	0.9523075480533092	-0.41525682819036047	0.0	1.051184030734949	-0.33374602822693006	0.0	1.0343976303037596	-0.2754256548416562	0.0	1.0413383883628389	-0.286135610317046	0.0	1.0589585787997826	-0.32674151585817385	0.0	1.051856087204676	-0.47372160758687687	0.0	0.9474631252610602	-0.4165958993021895	0.0	0.9958807266969757	-0.33086944238269717	0.0	0.9659317302189125	-0.2776547304468515	0.0	0.9680321026962357	-0.2854902503796707	0.0	1.0038433982376216	-0.3280325476543928	0.0	0.9437331876103661	-0.5504734153381383	0.0	0.8771994825202764	-0.5348279174708173	0.0	0.9200689773341924	-0.5107600720190536	0.0	0.9652321325296364	-0.5524735121108127	0.0	1.0144773694828044	-0.4902526990160503	0.0	0.9394587031064154	-0.47658449120402596	0.0	0.9507858146162292	-0.5419760577309949	0.0	0.9668481466464537	-0.4762916779478045	0.0	0.9269757695020309	-0.4813451092567831	0.0
98	3.2880174291939	1.0770445726704152	-0.4813197563261086	0.0	1.0834631661889877	-0.48137253866777546	0.0	0.9653764808499368	-0.4151025447276916	0.0	1.0680442004212998	-0.3394915182538311	0.0	1.0583639299723253	-0.2812976265466223	0.0	1.066434424211112	-0.2909819195810103	0.0	1.0759678252177776	-0.33374026826125536	0.0	1.058237509182428	-0.4829473422228915	0.0	0.9584239545137059	-0.4180905835682296	0.0	1.007969552180633	-0.333781855811195	0.0	0.9774399465558979	-0.27983789651783286	0.0	0.9789472625787025	-0.2874863081617058	0.0	1.0152543130950413	-0.33179857381190553	0.0	0.9466165947072268	-0.5496453665345056	0.0	0.880645055259293	-0.5326404708628661	0.0	0.9244399777595329	-0.5084310524345489	0.0	0.9675066488133232	-0.5525649118594765	0.0	1.0240334248388983	-0.4981302559131761	0.0	0.9502025889142663	-0.4770065658886486	0.0	0.9534981449174315	-0.5404810891343	0.0	0.9744563904706689	-0.4817416383177088	0.0	0.9386548592650958	-0.4792471184242645	0.0
99	3.3215686274509806	1.0840115623922029	-0.4911294510688227	0.0	1.090358926791609	-0.49206690617357685	0.0	0.9790057103339415	-0.41548317350022285	0.0	1.085534322409702	-0.3456246347360143	0.0	1.082686925367219	-0.2881545205764558	0.0	1.0917965922360413	-0.29620406327214266	0.0	1.0935475040497555	-0.34179073278467204	0.0	1.0663278674836532	-0.492135935838915	0.0	0.9693609764015882	-0.4202870615765143	0.0	1.0199344798919028	-0.3368347447965969	0.0	0.9895791926043521	-0.2822688024707918	0.0	0.990775863999211	-0.28972649340331497	0.0	1.027187279284935	-0.33508958897877716	0.0	0.9499204302334257	-0.5482600215388249	0.0	0.8840811050119914	-0.530290857014305	0.0	0.9292512256669011	-0.5061665660779856	0.0	0.9697149681777866	-0.5528537078276277	0.0	1.0331965581352902	-0.5064172128691047	0.0	0.9610953893861583	-0.4784031523332806	0.0	0.9567861930837972	-0.5384575545296639	0.0	0.9833415573333756	-0.48732715893131257	0.0	0.9502731709127619	-0.47772222067836834	0.0
100	3.355119825708061	1.0913228962964143	-0.5008622610874002	0.0	1.0975683477358726	-0.5023832716376795	0.0	0.9928083342575665	-0.41646370315332765	0.0	1.103175742609821	-0.3522164255196058	0.0	1.1064674013068527	-0.2955068319219404	0.0	1.1160815833576943	-0.3018724964775657	0.0	1.1111712101786466	-0.35076057579399345	0.0	1.0755522918155136	-0.5008201149444949	0.0	0.9796266347763123	-0.4235209306817895	0.0	1.0315482524078823	-0.3397871778687124	0.0	1.0021957441953233	-0.284907851174787	0.0	1.0033006011338432	-0.2920839373861436	0.0	1.0392759312459188	-0.3378465675520744	0.0	0.9534630267006968	-0.5467327048452522	0.0	0.8875701072284172	-0.5274113480661716	0.0	0.9345232713031618	-0.504065355318934	0.0	0.9718625796273767	-0.5535234401496137	0.0	1.0416440143285055	-0.5148136235438857	0.0	0.9721117092448261	-0.4803574434749361	0.0	0.9606743995866104	-0.5366661974924031	0.0	0.9931592248107843	-0.4929436523621167	0.0	0.9616831021000766	-0.47699779926506136	0.0
101	3.388671023965142	1.0984487920395665	-0.5098953345667152	0.0	1.1047573598490086	-0.5118074183398813	0.0	1.0067000044244747	-0.4178835195099744	0.0	1.1207329815769773	-0.3593719986749932	0.0	1.1294822540942	-0.30290500906445855	0.0	1.1388517001052474	-0.30815494826513995	0.0	1.1286924230562836	-0.36050783984123363	0.0	1.0843315737973773	-0.5088797731843829	0.0	0.9887001737145009	-0.4280496827119301	0.0	1.0428139791054185	-0.34248216556546857	0.0	1.0152850926549881	-0.28742067228570267	0.0	1.0162719744850466	-0.2942174173966629	0.0	1.0512336487798637	-0.34036456732074283	0.0	0.9569678847101879	-0.5454679519267498	0.0	0.89133066325967	-0.5236259396615877	0.0	0.9402384034821772	-0.5022764194636241	0.0	0.9740978808894891	-0.5544089811166514	0.0	1.0493153649807034	-0.52303896452844	0.0	0.9835576301734212	-0.482422535321998	0.0	0.9648449006550043	-0.5358214617213657	0.0	1.0032500682883705	-0.4990076430317816	0.0	0.973101676743173	-0.47740746617457064	0.0
102	3.4222222222222225	1.1049464265565534	-0.518012165177408	0.0	1.1116368193026267	-0.5201438293098392	0.0	1.0209560511882505	-0.41951529916043556	0.0	1.1383822785686426	-0.3672991045264666	0.0	1.1522694776366835	-0.310429338071087	0.0	1.1606614988472261	-0.3154711357229791	0.0	1.1463833890687818	-0.37096680342325333	0.0	1.0911031856640552	-0.5165508191054318	0.0	0.9965818060764389	-0.4338122098472958	0.0	1.0540387780003568	-0.3449544380144937	0.0	1.0290165116658991	-0.28938568697715744	0.0	1.0296172925951648	-0.29579136050851856	0.0	1.0631090089693203	-0.3430877647453883	0.0	0.9601856330654504	-0.5447045000455126	0.0	0.8957164185756108	-0.5186948051342096	0.0	0.9464017338199125	-0.5008507242582441	0.0	0.9766977431687066	-0.5552199851609859	0.0	1.0563970737817314	-0.5309473106212409	0.0	0.99606548812824	-0.48423317162387775	0.0	0.9689125127194372	-0.5364253987394346	0.0	1.013030094184255	-0.5061586260119505	0.0	0.9849379491993534	-0.4791451621898292	0.0
103	3.455773420479303	1.1106702599031224	-0.5253802397000513	0.0	1.118094783634454	-0.5275222114294913	0.0	1.0358792760101703	-0.4212697778592838	0.0	1.1563777029698499	-0.3761731385533338	0.0	1.1752753178962976	-0.3186392778471456	0.0	1.1822179457793918	-0.3242617352270689	0.0	1.1644869217054146	-0.38207301453247816	0.0	1.0952449059156495	-0.5240560925344733	0.0	1.003843802979947	-0.4402456402373851	0.0	1.0656432137988825	-0.347395108716224	0.0	1.0433735047633044	-0.29064965002619547	0.0	1.0432673919317987	-0.29679320497455836	0.0	1.0752208895283517	-0.3463372877013928	0.0	0.9630553928141651	-0.5443674925577974	0.0	0.9010058268352517	-0.5127796993700169	0.0	0.9529598529993564	-0.49965264614162586	0.0	0.9798859619449556	-0.555783398325173	0.0	1.0630629135102392	-0.5384447427711827	0.0	1.0101797117178353	-0.4856180284617186	0.0	0.9727049536859743	-0.5384224204378811	0.0	1.0220586381857533	-0.5141643698195086	0.0	0.997550201816651	-0.4818642981371999	0.0
104	3.4893246187363838	1.1156146919875554	-0.5322278261457155	0.0	1.1240851077767338	-0.5341916831145371	0.0	1.05146856357145	-0.42322446110696244	0.0	1.174634947662823	-0.38600529298186753	0.0	1.198156054971966	-0.3281886718721837	0.0	1.2036341311271306	-0.33478494238407397	0.0	1.1828372124439956	-0.39368752215217573	0.0	1.0970992655733536	-0.5312970039251479	0.0	1.01129774997434	-0.44642512123248873	0.0	1.0778424626496863	-0.3499892966729768	0.0	1.0579913575877087	-0.291423873838366	0.0	1.0569525087898062	-0.2975667852237895	0.0	1.0878101576069208	-0.3501840710764872	0.0	0.9657184440885292	-0.5441119482784785	0.0	0.9072175745094253	-0.5064487770900724	0.0	0.9597217381424328	-0.4984065282762041	0.0	0.9836703485508207	-0.5560720167193174	0.0	1.069295810757499	-0.5453805539228238	0.0	1.0259110130442686	-0.48666175383667076	0.0	0.9762207872097789	-0.541149415141443	0.0	1.0298916809975027	-0.5216558815214675	0.0	1.0110452823572846	-0.484749800824694	0.0
105	3.522875816993464	1.119757108932294	-0.5386729177101401	0.0	1.1295413177744418	-0.5403303995190293	0.0	1.0675304309586753	-0.425483112948114	0.0	1.1928186888387922	-0.3967335297194492	0.0	1.2201969952735212	-0.3396254526668053	0.0	1.2246333865767611	-0.34725169117947535	0.0	1.201048324023004	-0.4057312080894386	0.0	1.0975338141362248	-0.5379429206807399	0.0	1.0195892310633108	-0.4515084631921123	0.0	1.0905696999172643	-0.3527772122006052	0.0	1.0725791408500995	-0.2921097133934024	0.0	1.070447417905308	-0.2985440606817224	0.0	1.100845832415723	-0.3544716312328495	0.0	0.9684013203916313	-0.5435722361614032	0.0	0.914130431869628	-0.5003050874799416	0.0	0.9664705804016936	-0.49679759149169395	0.0	0.9878062291991737	-0.5561115911457837	0.0	1.0749957053511994	-0.5516426544580969	0.0	1.0427009720426397	-0.48774046676870536	0.0	0.9794524789791991	-0.5438066639983021	0.0	1.0362771833847018	-0.527274503954594	0.0	1.0253178812678774	-0.4871377734728117	0.0
106	3.5564270152505446	1.1231417976491505	-0.5447293232097056	0.0	1.134448573158219	-0.5459929743230566	0.0	1.0840169966991617	-0.428060854540448	0.0	1.2107669814674538	-0.40834648091878173	0.0	1.2412116342511954	-0.3532621976937065	0.0	1.2452471201806796	-0.36189537297977653	0.0	1.2189275944621645	-0.4183158159566505	0.0	1.0976249197535768	-0.543658805768502	0.0	1.0289776980912761	-0.4550027374925708	0.0	1.1037050101732417	-0.35564373612948996	0.0	1.0873692715698076	-0.2930524698006093	0.0	1.083965832234509	-0.2999543317388714	0.0	1.1142032414477825	-0.35889014634627525	0.0	0.9713327025168643	-0.5425381444144682	0.0	0.9214687592997679	-0.49467262488762587	0.0	0.9731589289970296	-0.4945980818477541	0.0	0.9919168608863422	-0.5558950664617639	0.0	1.080184388099474	-0.5572479949983324	0.0	1.0598425786731653	-0.4894304864704991	0.0	0.9823704996061715	-0.5458194429257636	0.0	1.041464857898677	-0.5306281316720171	0.0	1.0402963214819139	-0.4889610302460359	0.0
107	3.5899782135076252	1.1260203390450432	-0.5502800533854851	0.0	1.13896874573452	-0.5511451532655942	0.0	1.101153852446021	-0.43089195490883536	0.0	1.2286820988197038	-0.42090410395229877	0.0	1.2618121374346036	-0.3690523186417238	0.0	1.2660313873101632	-0.3788052366880144	0.0	1.236606674294158	-0.43170348876249165	0.0	1.0984148540034389	-0.5481923629183835	0.0	1.0393692639389898	-0.456758588572911	0.0	1.1172872111798124	-0.35841072304237587	0.0	1.1030283627023965	-0.29430460406240555	0.0	1.0981648908812904	-0.3016540356506212	0.0	1.1279424751700302	-0.36308705728497365	0.0	0.9746916608285026	-0.5409209451203629	0.0	0.9290440637838627	-0.4895591974949278	0.0	0.9799414035800519	-0.49179663153091663	0.0	0.9957322575736145	-0.5553575035386699	0.0	1.0851005792938488	-0.5622445295922547	0.0	1.0769629861937988	-0.4921452731790142	0.0	0.985035909570134	-0.5467917775942116	0.0	1.0460546264382007	-0.532186526916046	0.0	1.0559387307867518	-0.4906139405804455	0.0
